<svg width="26" height="30" viewBox="0 0 26 30" fill="none" xmlns="http://www.w3.org/2000/svg">
<path d="M18.9664 0.0150131C18.9026 -0.0562368 16.6057 0.0431382 14.607 2.21251C12.6082 4.38001 12.9157 6.86626 12.9607 6.93001C13.0057 6.99376 15.8107 7.09314 17.6014 4.57126C19.392 2.04939 19.0301 0.0881381 18.9664 0.0150131ZM25.1801 22.0144C25.0901 21.8344 20.8207 19.7006 21.2182 15.5981C21.6157 11.4938 24.3589 10.3688 24.402 10.2469C24.4451 10.125 23.2826 8.76564 22.0507 8.07751C21.1463 7.59236 20.1452 7.3144 19.1201 7.26376C18.9176 7.25814 18.2145 7.08564 16.7689 7.48126C15.8164 7.74189 13.6695 8.58564 13.0789 8.61939C12.4864 8.65314 10.7239 7.64064 8.82823 7.37251C7.6151 7.13814 6.32885 7.61814 5.40823 7.98751C4.48948 8.35501 2.74198 9.40126 1.51948 12.1819C0.29698 14.9606 0.936355 19.3631 1.39385 20.7319C1.85135 22.0988 2.56573 24.3394 3.78073 25.9744C4.86073 27.8194 6.29323 29.1 6.89136 29.535C7.48948 29.97 9.17698 30.2588 10.347 29.6606C11.2882 29.0831 12.987 28.7513 13.6582 28.7756C14.3276 28.8 15.6476 29.0644 16.9995 29.7863C18.0701 30.1556 19.0826 30.0019 20.097 29.5894C21.1114 29.175 22.5795 27.6038 24.2932 24.4181C24.9439 22.9369 25.2401 22.1363 25.1801 22.0144Z" fill="white"/>
<path d="M18.9664 0.0150131C18.9026 -0.0562368 16.6057 0.0431382 14.607 2.21251C12.6082 4.38001 12.9157 6.86626 12.9607 6.93001C13.0057 6.99376 15.8107 7.09314 17.6014 4.57126C19.392 2.04939 19.0301 0.0881381 18.9664 0.0150131ZM25.1801 22.0144C25.0901 21.8344 20.8207 19.7006 21.2182 15.5981C21.6157 11.4938 24.3589 10.3688 24.402 10.2469C24.4451 10.125 23.2826 8.76564 22.0507 8.07751C21.1463 7.59236 20.1452 7.3144 19.1201 7.26376C18.9176 7.25814 18.2145 7.08564 16.7689 7.48126C15.8164 7.74189 13.6695 8.58564 13.0789 8.61939C12.4864 8.65314 10.7239 7.64064 8.82823 7.37251C7.6151 7.13814 6.32885 7.61814 5.40823 7.98751C4.48948 8.35501 2.74198 9.40126 1.51948 12.1819C0.29698 14.9606 0.936355 19.3631 1.39385 20.7319C1.85135 22.0988 2.56573 24.3394 3.78073 25.9744C4.86073 27.8194 6.29323 29.1 6.89136 29.535C7.48948 29.97 9.17698 30.2588 10.347 29.6606C11.2882 29.0831 12.987 28.7513 13.6582 28.7756C14.3276 28.8 15.6476 29.0644 16.9995 29.7863C18.0701 30.1556 19.0826 30.0019 20.097 29.5894C21.1114 29.175 22.5795 27.6038 24.2932 24.4181C24.9439 22.9369 25.2401 22.1363 25.1801 22.0144Z" fill="white"/>
</svg>
