<svg width="26" height="30" viewBox="0 0 26 30" fill="none" xmlns="http://www.w3.org/2000/svg">
<path d="M0.502 0.131984C0.65437 0.0448228 0.826999 -0.000694145 1.00254 8.00212e-06C1.17807 0.000710149 1.35033 0.0476066 1.502 0.135984L17.188 9.28598L12.334 13.654L3.3858e-07 2.55398V0.999984C-0.000144526 0.823916 0.0461991 0.650932 0.134346 0.498518C0.222493 0.346104 0.349319 0.219665 0.502 0.131984ZM3.3858e-07 5.24598V24.754L10.84 15L3.3858e-07 5.24598ZM3.3858e-07 27.446V29C-5.18094e-05 29.1759 0.046323 29.3488 0.134442 29.5011C0.222561 29.6534 0.349305 29.7797 0.501876 29.8674C0.654446 29.955 0.827442 30.0009 1.00339 30.0003C1.17935 29.9997 1.35203 29.9527 1.504 29.864L17.188 20.714L12.334 16.346L3.3858e-07 27.446ZM19.002 19.656L25.502 15.864C25.6531 15.7759 25.7784 15.6498 25.8655 15.4982C25.9527 15.3466 25.9985 15.1748 25.9985 15C25.9985 14.8251 25.9527 14.6533 25.8655 14.5017C25.7784 14.3501 25.6531 14.224 25.502 14.136L19.002 10.344L13.828 15L19.002 19.656Z" fill="white"/>
</svg>
